<svg width="40" height="40" viewBox="0 0 40 40" fill="none" xmlns="http://www.w3.org/2000/svg">
<path d="M36.6173 30.5502C36.6173 31.1502 36.484 31.7668 36.2007 32.3668C35.9173 32.9668 35.5507 33.5335 35.0673 34.0668C34.2507 34.9668 33.3507 35.6168 32.334 36.0335C31.334 36.4502 30.2507 36.6668 29.084 36.6668C27.384 36.6668 25.5673 36.2668 23.6507 35.4502C21.734 34.6335 19.8173 33.5335 17.9173 32.1502C16.0007 30.7502 14.184 29.2002 12.4507 27.4835C10.734 25.7502 9.18398 23.9335 7.80065 22.0335C6.43398 20.1335 5.33398 18.2335 4.53398 16.3502C3.73398 14.4502 3.33398 12.6335 3.33398 10.9002C3.33398 9.76683 3.53398 8.6835 3.93398 7.6835C4.33398 6.66683 4.96732 5.7335 5.85065 4.90016C6.91732 3.85016 8.08398 3.3335 9.31732 3.3335C9.78399 3.3335 10.2507 3.4335 10.6673 3.6335C11.1007 3.8335 11.484 4.1335 11.784 4.56683L15.6507 10.0168C15.9507 10.4335 16.1673 10.8168 16.3173 11.1835C16.4673 11.5335 16.5507 11.8835 16.5507 12.2002C16.5507 12.6002 16.434 13.0002 16.2007 13.3835C15.984 13.7668 15.6673 14.1668 15.2673 14.5668L14.0007 15.8835C13.8173 16.0668 13.734 16.2835 13.734 16.5502C13.734 16.6835 13.7507 16.8002 13.784 16.9335C13.834 17.0668 13.884 17.1668 13.9173 17.2668C14.2173 17.8168 14.734 18.5335 15.4673 19.4002C16.2173 20.2668 17.0173 21.1502 17.884 22.0335C18.784 22.9168 19.6507 23.7335 20.534 24.4835C21.4007 25.2168 22.1173 25.7168 22.684 26.0168C22.7673 26.0502 22.8673 26.1002 22.984 26.1502C23.1173 26.2002 23.2507 26.2168 23.4007 26.2168C23.684 26.2168 23.9007 26.1168 24.084 25.9335L25.3507 24.6835C25.7673 24.2668 26.1673 23.9502 26.5507 23.7502C26.934 23.5168 27.3173 23.4002 27.734 23.4002C28.0507 23.4002 28.384 23.4668 28.7507 23.6168C29.1173 23.7668 29.5007 23.9835 29.9173 24.2668L35.434 28.1835C35.8673 28.4835 36.1673 28.8335 36.3507 29.2502C36.5173 29.6668 36.6173 30.0835 36.6173 30.5502Z" fill="#3C3C43"/>
</svg>
