<svg width="40" height="40" viewBox="0 0 40 40" fill="none" xmlns="http://www.w3.org/2000/svg">
<g clip-path="url(#clip0_712_3156)">
<path d="M12.7541 34.8498C12.7041 34.8498 12.6375 34.8832 12.5875 34.8832C9.35413 33.2832 6.72079 30.6332 5.10413 27.3998C5.10413 27.3498 5.13746 27.2832 5.13746 27.2332C7.17079 27.8332 9.27079 28.2832 11.3541 28.6332C11.7208 30.7332 12.1541 32.8165 12.7541 34.8498Z" fill="white"/>
<path d="M34.8984 27.4167C33.2484 30.7334 30.4984 33.4167 27.1484 35.0334C27.7818 32.9167 28.3151 30.7834 28.6651 28.6334C30.7651 28.2834 32.8318 27.8334 34.8651 27.2334C34.8484 27.3001 34.8984 27.3667 34.8984 27.4167Z" fill="white"/>
<path d="M35.0318 12.8509C32.9318 12.2175 30.8151 11.7009 28.6651 11.3342C28.3151 9.1842 27.7984 7.05086 27.1484 4.96753C30.5984 6.61753 33.3818 9.40086 35.0318 12.8509Z" fill="white"/>
<path d="M12.7573 5.14766C12.1573 7.18099 11.724 9.24766 11.374 11.3477C9.224 11.681 7.09067 12.2143 4.974 12.8477C6.59067 9.49766 9.274 6.74766 12.5907 5.09766C12.6407 5.09766 12.7073 5.14766 12.7573 5.14766Z" fill="white"/>
<path d="M25.813 10.983C21.9464 10.5497 18.0464 10.5497 14.1797 10.983C14.5964 8.69967 15.1297 6.41634 15.8797 4.21634C15.913 4.08301 15.8964 3.98301 15.913 3.84967C17.2297 3.53301 18.5797 3.33301 19.9964 3.33301C21.3964 3.33301 22.763 3.53301 24.063 3.84967C24.0797 3.98301 24.0797 4.08301 24.113 4.21634C24.863 6.43301 25.3964 8.69967 25.813 10.983Z" fill="white"/>
<path d="M10.9834 25.8162C8.68337 25.3995 6.41671 24.8662 4.21671 24.1162C4.08337 24.0829 3.98337 24.0995 3.85004 24.0829C3.53337 22.7662 3.33337 21.4162 3.33337 19.9995C3.33337 18.5995 3.53337 17.2329 3.85004 15.9329C3.98337 15.9162 4.08337 15.9162 4.21671 15.8829C6.43337 15.1495 8.68337 14.5995 10.9834 14.1829C10.5667 18.0495 10.5667 21.9495 10.9834 25.8162Z" fill="white"/>
<path d="M36.6604 19.9995C36.6604 21.4162 36.4604 22.7662 36.1437 24.0829C36.0104 24.0995 35.9104 24.0829 35.777 24.1162C33.5604 24.8495 31.2937 25.3995 29.0104 25.8162C29.4437 21.9495 29.4437 18.0495 29.0104 14.1829C31.2937 14.5995 33.577 15.1329 35.777 15.8829C35.9104 15.9162 36.0104 15.9329 36.1437 15.9329C36.4604 17.2495 36.6604 18.5995 36.6604 19.9995Z" fill="white"/>
<path d="M25.813 29.0166C25.3964 31.3166 24.863 33.5833 24.113 35.7833C24.0797 35.9166 24.0797 36.0166 24.063 36.1499C22.763 36.4666 21.3964 36.6666 19.9964 36.6666C18.5797 36.6666 17.2297 36.4666 15.913 36.1499C15.8964 36.0166 15.913 35.9166 15.8797 35.7833C15.1464 33.5666 14.5964 31.3166 14.1797 29.0166C16.113 29.2333 18.0464 29.3833 19.9964 29.3833C21.9464 29.3833 23.8964 29.2333 25.813 29.0166Z" fill="white"/>
<path d="M26.2723 26.2721C22.1038 26.7981 17.8963 26.7981 13.7278 26.2721C13.2019 22.1036 13.2019 17.8962 13.7278 13.7277C17.8963 13.2018 22.1038 13.2018 26.2723 13.7277C26.7982 17.8962 26.7982 22.1036 26.2723 26.2721Z" fill="white"/>
</g>
<defs>
<clipPath id="clip0_712_3156">
<rect width="40" height="40" fill="white"/>
</clipPath>
</defs>
</svg>
