<svg width="36" height="36" viewBox="0 0 36 36" fill="none" xmlns="http://www.w3.org/2000/svg">
<path d="M27.8092 6.17977L19.5592 3.08977C18.7042 2.77477 17.3092 2.77477 16.4542 3.08977L8.20422 6.17977C6.61422 6.77977 5.32422 8.63977 5.32422 10.3348V22.4848C5.32422 23.6998 6.11922 25.3048 7.09422 26.0248L15.3442 32.1898C16.7992 33.2848 19.1842 33.2848 20.6392 32.1898L28.8892 26.0248C29.8642 25.2898 30.6592 23.6998 30.6592 22.4848V10.3348C30.6742 8.63977 29.3842 6.77977 27.8092 6.17977ZM23.2192 14.5798L16.7692 21.0298C16.5442 21.2548 16.2592 21.3598 15.9742 21.3598C15.6892 21.3598 15.4042 21.2548 15.1792 21.0298L12.7792 18.5998C12.3442 18.1648 12.3442 17.4448 12.7792 17.0098C13.2142 16.5748 13.9342 16.5748 14.3692 17.0098L15.9892 18.6298L21.6442 12.9748C22.0792 12.5398 22.7992 12.5398 23.2342 12.9748C23.6692 13.4098 23.6692 14.1448 23.2192 14.5798Z" fill="#3C3C43"/>
</svg>
