<svg width="40" height="40" viewBox="0 0 40 40" fill="none" xmlns="http://www.w3.org/2000/svg">
<path d="M13.9844 30.8191V13.8858C13.9844 13.2191 14.1844 12.5691 14.551 12.0191L19.101 5.25248C19.8177 4.16915 21.601 3.40248 23.1177 3.96915C24.751 4.51915 25.8344 6.35248 25.4844 7.98581L24.6177 13.4358C24.551 13.9358 24.6844 14.3858 24.9677 14.7358C25.251 15.0525 25.6677 15.2525 26.1177 15.2525H32.9677C34.2844 15.2525 35.4177 15.7858 36.0844 16.7191C36.7177 17.6191 36.8344 18.7858 36.4177 19.9691L32.3177 32.4525C31.801 34.5191 29.551 36.2025 27.3177 36.2025H20.8177C19.701 36.2025 18.1344 35.8191 17.4177 35.1025L15.2844 33.4525C14.4677 32.8358 13.9844 31.8525 13.9844 30.8191Z" fill="white"/>
<path d="M8.68203 10.6328H6.96536C4.38203 10.6328 3.33203 11.6328 3.33203 14.0995V30.8661C3.33203 33.3328 4.38203 34.3328 6.96536 34.3328H8.68203C11.2654 34.3328 12.3154 33.3328 12.3154 30.8661V14.0995C12.3154 11.6328 11.2654 10.6328 8.68203 10.6328Z" fill="white"/>
</svg>
