<svg width="40" height="40" viewBox="0 0 40 40" fill="none" xmlns="http://www.w3.org/2000/svg">
<path d="M28.334 3.3335H11.6673C7.06732 3.3335 3.33398 7.05016 3.33398 11.6335V21.6002V23.2668C3.33398 27.8502 7.06732 31.5668 11.6673 31.5668H14.1673C14.6173 31.5668 15.2173 31.8668 15.5007 32.2335L18.0007 35.5502C19.1007 37.0168 20.9007 37.0168 22.0007 35.5502L24.5007 32.2335C24.8173 31.8168 25.3173 31.5668 25.834 31.5668H28.334C32.934 31.5668 36.6673 27.8502 36.6673 23.2668V11.6335C36.6673 7.05016 32.934 3.3335 28.334 3.3335ZM21.6673 22.9168H11.6673C10.984 22.9168 10.4173 22.3502 10.4173 21.6668C10.4173 20.9835 10.984 20.4168 11.6673 20.4168H21.6673C22.3507 20.4168 22.9173 20.9835 22.9173 21.6668C22.9173 22.3502 22.3507 22.9168 21.6673 22.9168ZM28.334 14.5835H11.6673C10.984 14.5835 10.4173 14.0168 10.4173 13.3335C10.4173 12.6502 10.984 12.0835 11.6673 12.0835H28.334C29.0173 12.0835 29.584 12.6502 29.584 13.3335C29.584 14.0168 29.0173 14.5835 28.334 14.5835Z" fill="#3C3C43"/>
</svg>
