<svg width="16" height="16" viewBox="0 0 16 16" fill="none" xmlns="http://www.w3.org/2000/svg">
<path fill-rule="evenodd" clip-rule="evenodd" d="M7.99771 1.33447C11.6796 1.33447 14.6644 4.31922 14.6644 8.00113C14.6644 11.683 11.6796 14.6678 7.99771 14.6678C4.31584 14.6678 1.33105 11.683 1.33105 8.00113C1.33105 4.31922 4.31584 1.33447 7.99771 1.33447ZM7.99771 10.1678C7.53743 10.1678 7.16434 10.5409 7.16434 11.0011C7.16434 11.4614 7.53746 11.8345 7.99768 11.8345C8.4579 11.8345 8.83102 11.4614 8.83102 11.0011C8.83102 10.5409 8.4579 10.1678 7.99768 10.1678M7.88643 4.25119C7.23752 4.25119 6.69212 4.42797 6.25087 4.78057C5.72799 5.20294 5.46677 5.82669 5.46677 6.65238H6.88434V6.64288C6.88434 6.32785 6.95068 6.06944 7.08309 5.86788C7.26574 5.59694 7.56206 5.46132 7.97168 5.46132C8.22377 5.46132 8.43834 5.5275 8.61449 5.65963C8.83493 5.84269 8.94552 6.11979 8.94552 6.49163C8.94552 6.72485 8.88852 6.93269 8.77521 7.11557C8.68068 7.27938 8.52946 7.43994 8.32121 7.5976C7.88015 7.90007 7.59334 8.19947 7.46121 8.49582C7.34774 8.74157 7.29074 9.13229 7.29074 9.66782H8.62402C8.62402 9.31482 8.67093 9.05032 8.7659 8.87376C8.8414 8.72882 8.99912 8.57454 9.23862 8.41057C9.65471 8.10166 9.95065 7.81482 10.1272 7.55013C10.3414 7.23513 10.4487 6.86635 10.4487 6.44397C10.4487 5.56866 10.0927 4.94779 9.38015 4.5821C8.95187 4.36157 8.45396 4.25113 7.88646 4.25113" fill="#AEAEB2"/>
</svg>
