<svg width="24" height="24" viewBox="0 0 24 24" fill="none" xmlns="http://www.w3.org/2000/svg">
<path d="M19.8658 9C19.7403 9 19.6148 8.97596 19.4892 8.92786C19.0123 8.72347 18.7989 8.19447 18.9998 7.7376C19.2382 7.22062 19.1002 6.46318 18.6609 5.83799C18.2216 5.20078 17.5564 4.76795 16.9539 4.80402C16.4016 4.80402 16.0126 4.40727 16 3.91433C16 3.40937 16.4142 3.01262 16.9288 3.00059C18.2216 2.97655 19.439 3.6859 20.2298 4.82807C21.0331 5.98226 21.2213 7.36489 20.7318 8.44695C20.5812 8.79561 20.2298 9 19.8658 9Z" fill="#AEAEB2"/>
<path d="M23.0528 10C22.9813 10 22.92 9.98915 22.8485 9.96745C22.4399 9.84812 22.205 9.40332 22.3173 8.96937C22.7055 7.49394 22.3786 5.73644 21.4491 4.26101C20.5196 2.78558 19.1099 1.79834 17.6697 1.61392C17.2509 1.55967 16.9547 1.15827 17.0057 0.71347C17.0568 0.268671 17.445 -0.0567918 17.8535 0.00830075C19.7228 0.246973 21.541 1.50543 22.7157 3.37141C23.8904 5.2374 24.2888 7.49394 23.7883 9.42502C23.6963 9.76133 23.3899 10 23.0528 10Z" fill="#AEAEB2"/>
<path d="M18.115 10.779C18.115 11.079 17.865 11.329 17.565 11.329H4.425C4.125 11.329 3.875 11.079 3.875 10.779C3.875 10.479 4.125 10.229 4.425 10.229H5.165L5.445 8.90898C5.705 7.62898 6.255 6.45898 8.435 6.45898H13.565C15.745 6.45898 16.285 7.63898 16.555 8.90898L16.835 10.229H17.575C17.865 10.229 18.115 10.479 18.115 10.779Z" fill="#AEAEB2"/>
<path d="M18.4266 14.9099C18.3166 13.7099 17.9966 12.4199 15.6566 12.4199H6.33663C3.99663 12.4199 3.67663 13.7099 3.56663 14.9099L3.15663 19.3599C3.10663 19.9099 3.28663 20.4699 3.66663 20.8899C4.05663 21.3099 4.59663 21.5499 5.18663 21.5499H6.55663C7.73663 21.5499 7.96663 20.8699 8.11663 20.4299L8.26663 19.9899C8.43663 19.4899 8.47663 19.3599 9.13663 19.3599H12.8766C13.5366 19.3599 13.5566 19.4299 13.7466 19.9899L13.8966 20.4299C14.0466 20.8799 14.2666 21.5499 15.4566 21.5499H16.8266C17.4066 21.5499 17.9566 21.3099 18.3466 20.8899C18.7266 20.4699 18.9066 19.9199 18.8566 19.3599L18.4266 14.9099ZM8.80663 16.4299H6.61663C6.31663 16.4299 6.06663 16.1799 6.06663 15.8799C6.06663 15.5799 6.31663 15.3299 6.61663 15.3299H8.80663C9.10663 15.3299 9.35663 15.5799 9.35663 15.8799C9.35663 16.1799 9.10663 16.4299 8.80663 16.4299ZM15.3766 16.4299H13.1866C12.8866 16.4299 12.6366 16.1799 12.6366 15.8799C12.6366 15.5799 12.8866 15.3299 13.1866 15.3299H15.3766C15.6766 15.3299 15.9266 15.5799 15.9266 15.8799C15.9266 16.1799 15.6766 16.4299 15.3766 16.4299Z" fill="#AEAEB2"/>
</svg>
