<svg width="36" height="36" viewBox="0 0 36 36" fill="none" xmlns="http://www.w3.org/2000/svg">
<g clip-path="url(#clip0_2406_28769)">
<path d="M18 0C8.0588 0 0 8.0588 0 18C0 27.9412 8.0588 36 18 36C27.9412 36 36 27.9412 36 18C36 8.0588 27.9412 0 18 0Z" fill="#40B3E0"/>
<path d="M26.765 10.3538L23.55 26.5633C23.55 26.5633 23.1004 27.6874 21.8639 27.1478L14.4448 21.4598L11.7471 20.156L7.20572 18.6271C7.20572 18.6271 6.50878 18.3799 6.44128 17.8403C6.37392 17.3007 7.22822 17.0085 7.22822 17.0085L25.2811 9.92662C25.2811 9.92662 26.765 9.27468 26.765 10.3538Z" fill="white"/>
<path d="M13.8697 26.3816C13.8697 26.3816 13.6531 26.3613 13.3833 25.5069C13.1136 24.6526 11.7422 20.1563 11.7422 20.1563L22.6458 13.2319C22.6458 13.2319 23.2754 12.8497 23.2529 13.2319C23.2529 13.2319 23.3653 13.2992 23.028 13.614C22.6908 13.9288 14.4624 21.3253 14.4624 21.3253" fill="#D2E5F1"/>
<path d="M17.2899 23.6409L14.3554 26.3165C14.3554 26.3165 14.126 26.4906 13.875 26.3814L14.4369 21.4116" fill="#B5CFE4"/>
</g>
<defs>
<clipPath id="clip0_2406_28769">
<rect width="36" height="36" fill="white"/>
</clipPath>
</defs>
</svg>
