<svg width="40" height="40" viewBox="0 0 40 40" fill="none" xmlns="http://www.w3.org/2000/svg">
<path d="M23.9169 3.3335H16.0836C14.3503 3.3335 12.9336 4.7335 12.9336 6.46683V8.0335C12.9336 9.76683 14.3336 11.1668 16.0669 11.1668H23.9169C25.6503 11.1668 27.0503 9.76683 27.0503 8.0335V6.46683C27.0669 4.7335 25.6503 3.3335 23.9169 3.3335Z" fill="#3C3C43"/>
<path d="M28.7344 8.0333C28.7344 10.6833 26.5677 12.85 23.9177 12.85H16.0844C13.4344 12.85 11.2677 10.6833 11.2677 8.0333C11.2677 7.09997 10.2677 6.51663 9.43437 6.94997C7.08437 8.19997 5.48438 10.6833 5.48438 13.5333V29.2166C5.48438 33.3166 8.83438 36.6666 12.9344 36.6666H27.0677C31.1677 36.6666 34.5177 33.3166 34.5177 29.2166V13.5333C34.5177 10.6833 32.9177 8.19997 30.5677 6.94997C29.7344 6.51663 28.7344 7.09997 28.7344 8.0333ZM25.5677 21.2166L18.901 27.8833C18.651 28.1333 18.3344 28.25 18.0177 28.25C17.701 28.25 17.3844 28.1333 17.1344 27.8833L14.6344 25.3833C14.151 24.9 14.151 24.1 14.6344 23.6166C15.1177 23.1333 15.9177 23.1333 16.401 23.6166L18.0177 25.2333L23.801 19.45C24.2844 18.9666 25.0844 18.9666 25.5677 19.45C26.051 19.9333 26.051 20.7333 25.5677 21.2166Z" fill="#3C3C43"/>
</svg>
