<svg width="40" height="40" viewBox="0 0 40 40" fill="none" xmlns="http://www.w3.org/2000/svg">
<path d="M19.9479 3.33301C10.7479 3.33301 3.28125 10.7997 3.28125 19.9997C3.28125 29.1997 10.7479 36.6663 19.9479 36.6663C29.1479 36.6663 36.6146 29.1997 36.6146 19.9997C36.6146 10.7997 29.1646 3.33301 19.9479 3.33301ZM28.9979 27.383C26.9479 30.333 23.5813 32.083 19.9979 32.083C16.4146 32.083 13.0479 30.333 10.9979 27.383C10.5979 26.8163 10.7479 26.033 11.3146 25.6497C11.8813 25.2497 12.6646 25.3997 13.0479 25.9663C14.6313 28.233 17.2312 29.5997 19.9979 29.5997C22.7646 29.5997 25.3646 28.2497 26.9479 25.9663C27.3479 25.3997 28.1146 25.2663 28.6812 25.6497C29.2646 26.033 29.3979 26.8163 28.9979 27.383Z" fill="white"/>
</svg>
