<svg width="36" height="36" viewBox="0 0 36 36" fill="none" xmlns="http://www.w3.org/2000/svg">
<rect width="36" height="36" rx="18" fill="#4280F2"/>
<path d="M21.75 11.625H14.25C12 11.625 10.5 12.75 10.5 15.375V20.625C10.5 23.25 12 24.375 14.25 24.375H21.75C24 24.375 25.5 23.25 25.5 20.625V15.375C25.5 12.75 24 11.625 21.75 11.625ZM22.1025 16.1925L19.755 18.0675C19.26 18.465 18.63 18.66 18 18.66C17.37 18.66 16.7325 18.465 16.245 18.0675L13.8975 16.1925C13.6575 15.9975 13.62 15.6375 13.8075 15.3975C14.0025 15.1575 14.355 15.1125 14.595 15.3075L16.9425 17.1825C17.5125 17.64 18.48 17.64 19.05 17.1825L21.3975 15.3075C21.6375 15.1125 21.9975 15.15 22.185 15.3975C22.38 15.6375 22.3425 15.9975 22.1025 16.1925Z" fill="white"/>
</svg>
