<svg width="40" height="40" viewBox="0 0 40 40" fill="none" xmlns="http://www.w3.org/2000/svg">
<path d="M34.9833 16.182C34.4167 15.9487 33.6667 15.832 32.7333 15.832H23.9333C21.0333 15.832 20 16.8654 20 19.7987V32.6987C20 33.6654 20.1167 34.4154 20.3667 34.9987C20.8833 36.1987 21.9833 36.6654 23.9333 36.6654H32.7333C35.6333 36.6654 36.6667 35.6154 36.6667 32.6987V19.7987C36.6667 17.8154 36.2 16.6987 34.9833 16.182ZM30 32.9154H26.6667C26.6333 32.9154 26.5833 32.9154 26.55 32.8987C26.3 32.882 26.0833 32.7987 25.9 32.632C25.6 32.4154 25.4167 32.0654 25.4167 31.6654C25.4167 30.982 25.9833 30.4154 26.6667 30.4154H30C30.6833 30.4154 31.25 30.982 31.25 31.6654C31.25 32.3487 30.6833 32.9154 30 32.9154Z" fill="white"/>
<path d="M34.981 10.3154V11.6654C34.981 12.582 34.231 13.332 33.3143 13.332H23.931C19.6643 13.332 17.4977 15.5154 17.4977 19.7987V34.9987C17.4977 35.9154 16.7477 36.6654 15.831 36.6654H12.581C11.9143 36.6654 11.381 36.132 11.381 35.482C11.381 34.8154 11.9143 34.2987 12.581 34.2987H15.831V27.9154H9.99766C6.29766 27.732 3.34766 24.682 3.34766 20.932V10.3154C3.34766 6.46536 6.48099 3.33203 10.3477 3.33203H27.9977C31.8477 3.33203 34.981 6.46536 34.981 10.3154Z" fill="white"/>
</svg>
