<svg width="24" height="24" viewBox="0 0 24 24" fill="none" xmlns="http://www.w3.org/2000/svg">
<g clip-path="url(#clip0_2761_891)">
<path d="M15.0006 18C15.0006 19.6569 13.6575 21 12.0006 21C10.3438 21 9.00063 19.6569 9.00063 18C9.00063 16.3431 10.3438 15 12.0006 15C13.6575 15 15.0006 16.3431 15.0006 18Z" fill="#AEAEB2"/>
<path d="M12.0006 9C15.2547 9 18.1054 10.727 19.6862 13.3144L17.4704 15.5303C16.5289 13.4485 14.4339 12 12.0006 12C9.56733 12 7.47234 13.4485 6.53088 15.5303L4.31503 13.3144C5.89585 10.727 8.74656 9 12.0006 9Z" fill="#AEAEB2"/>
<path d="M24.0013 8.99937L21.853 11.1476C19.6849 8.03609 16.0805 6 12.0006 6C7.92071 6 4.31634 8.03609 2.14822 11.1476L0 8.99937C2.73665 5.35639 7.09345 3 12.0006 3C16.9078 3 21.2646 5.35639 24.0013 8.99937Z" fill="#AEAEB2"/>
</g>
<defs>
<clipPath id="clip0_2761_891">
<rect width="24" height="24" fill="white"/>
</clipPath>
</defs>
</svg>
