<svg width="1178" height="109" viewBox="0 0 1178 109" fill="none" xmlns="http://www.w3.org/2000/svg">
<path d="M479 8V6H475V8H477H479ZM34.5858 101.914C35.3668 102.695 36.6332 102.695 37.4142 101.914L50.1421 89.1863C50.9232 88.4052 50.9232 87.1389 50.1421 86.3579C49.3611 85.5768 48.0948 85.5768 47.3137 86.3579L36 97.6716L24.6863 86.3579C23.9052 85.5768 22.6389 85.5768 21.8579 86.3579C21.0768 87.1389 21.0768 88.4052 21.8579 89.1863L34.5858 101.914ZM477 8H475V20H477H479V8H477ZM440 57V55H73V57V59H440V57ZM36 94H34V100.5H36H38V94H36ZM73 57V55C51.4609 55 34 72.4609 34 94H36H38C38 74.67 53.67 59 73 59V57ZM477 20H475C475 39.33 459.33 55 440 55V57V59C461.539 59 479 41.5391 479 20H477Z" fill="#E40163"/>
<path d="M704 8V6H708V8H706H704ZM1148.41 101.914C1147.63 102.695 1146.37 102.695 1145.59 101.914L1132.86 89.1863C1132.08 88.4052 1132.08 87.1389 1132.86 86.3579C1133.64 85.5768 1134.91 85.5768 1135.69 86.3579L1147 97.6716L1158.31 86.3579C1159.09 85.5768 1160.36 85.5768 1161.14 86.3579C1161.92 87.1389 1161.92 88.4052 1161.14 89.1863L1148.41 101.914ZM706 8H708V20H706H704V8H706ZM743 57V55H1110V57V59H743V57ZM1147 94H1149V100.5H1147H1145V94H1147ZM1110 57V55C1131.54 55 1149 72.4609 1149 94H1147H1145C1145 74.67 1129.33 59 1110 59V57ZM706 20H708C708 39.33 723.67 55 743 55V57V59C721.461 59 704 41.5391 704 20H706Z" fill="#E40163"/>
</svg>
