<svg width="20" height="20" viewBox="0 0 20 20" fill="none" xmlns="http://www.w3.org/2000/svg">
<g clip-path="url(#clip0_2423_29089)">
<path d="M17.1849 7.04183C16.3099 3.19183 12.9515 1.4585 10.0015 1.4585C10.0015 1.4585 10.0015 1.4585 9.99321 1.4585C7.05154 1.4585 3.68488 3.1835 2.80988 7.0335C1.83488 11.3335 4.46821 14.9752 6.85154 17.2668C7.73488 18.1168 8.86821 18.5418 10.0015 18.5418C11.1349 18.5418 12.2682 18.1168 13.1432 17.2668C15.5265 14.9752 18.1599 11.3418 17.1849 7.04183ZM10.0015 11.2168C8.55154 11.2168 7.37654 10.0418 7.37654 8.59183C7.37654 7.14183 8.55154 5.96683 10.0015 5.96683C11.4515 5.96683 12.6265 7.14183 12.6265 8.59183C12.6265 10.0418 11.4515 11.2168 10.0015 11.2168Z" fill="#3C3C43"/>
</g>
<defs>
<clipPath id="clip0_2423_29089">
<rect width="20" height="20" fill="white"/>
</clipPath>
</defs>
</svg>
