<svg width="147" height="44" viewBox="0 0 147 44" fill="none" xmlns="http://www.w3.org/2000/svg">
<rect width="146.667" height="44" fill="#221F28"/>
<path d="M98.3623 13.924C100.046 13.924 101.502 14.3732 102.729 15.2716C102.951 15.4325 103.108 15.6073 103.199 15.795C103.304 15.9827 103.356 16.2238 103.356 16.5187C103.356 16.9344 103.239 17.2901 103.004 17.5851C102.782 17.8665 102.508 18.0069 102.182 18.007C102.012 18.007 101.848 17.9805 101.691 17.9269C101.548 17.8732 101.352 17.7725 101.104 17.6251C100.648 17.3435 100.216 17.1423 99.8115 17.0216C99.4069 16.901 98.9893 16.8409 98.5586 16.8409C97.3967 16.8409 96.5285 17.2028 95.9541 17.9269C95.3928 18.6376 95.1123 19.7241 95.1123 21.1857C95.1124 22.6603 95.3929 23.7595 95.9541 24.4835C96.5285 25.1942 97.3967 25.5499 98.5586 25.5499C98.9111 25.5499 99.2573 25.4961 99.5967 25.3888C99.9491 25.2815 100.452 25.0741 101.104 24.7657C101.431 24.5914 101.647 24.4837 101.751 24.4435C101.868 24.4034 102.012 24.3829 102.182 24.3829C102.508 24.383 102.782 24.5314 103.004 24.8263C103.239 25.1078 103.356 25.4566 103.356 25.8722C103.356 26.1536 103.304 26.3948 103.199 26.5958C103.108 26.7835 102.951 26.9584 102.729 27.1193C101.502 28.0176 100.046 28.4669 98.3623 28.4669C96.9917 28.4669 95.7845 28.1711 94.7402 27.5812C93.7089 26.9912 92.9055 26.1466 92.3311 25.047C91.7568 23.9342 91.4698 22.647 91.4697 21.1857C91.4697 19.7375 91.7502 18.463 92.3115 17.3634C92.8859 16.2504 93.6958 15.3987 94.7402 14.8087C95.7845 14.2189 96.9918 13.924 98.3623 13.924ZM126.417 14.1046C128.075 14.1046 129.328 14.4736 130.177 15.2111C131.025 15.9485 131.45 17.028 131.45 18.4493C131.45 19.5355 131.162 20.4472 130.588 21.1847C130.013 21.9222 129.205 22.4192 128.16 22.674C128.591 22.741 128.963 22.8884 129.276 23.1163C129.603 23.3442 129.922 23.6861 130.235 24.1417L131.45 25.9318C131.685 26.2938 131.803 26.6363 131.803 26.9581C131.803 27.3871 131.632 27.7491 131.293 28.0441C130.954 28.3256 130.549 28.4669 130.079 28.4669C129.766 28.4669 129.472 28.3926 129.198 28.2452C128.924 28.0977 128.689 27.8762 128.493 27.5812L125.947 23.7599C125.764 23.4783 125.568 23.2771 125.359 23.1564C125.164 23.0358 124.928 22.9757 124.654 22.9757H123.382V26.5753C123.382 27.1383 123.225 27.5878 122.912 27.923C122.599 28.2448 122.167 28.4064 121.619 28.4064C121.071 28.4063 120.634 28.2447 120.308 27.923C119.994 27.5878 119.838 27.1384 119.838 26.5753V15.8146C119.838 15.2648 119.981 14.842 120.269 14.547C120.556 14.2522 120.967 14.1046 121.502 14.1046H126.417ZM111.129 13.9845C111.534 13.9845 111.906 14.0852 112.245 14.2863C112.584 14.4874 112.833 14.762 112.989 15.1105L118.159 26.0128C118.277 26.2675 118.335 26.5157 118.335 26.757C118.335 27.1859 118.159 27.5612 117.807 27.8829C117.467 28.1914 117.075 28.3458 116.631 28.3458C115.991 28.3457 115.522 28.0235 115.222 27.38L114.34 25.3488H107.995L107.095 27.38C106.808 28.0237 106.331 28.3458 105.665 28.3458C105.208 28.3458 104.804 28.1913 104.451 27.8829C104.099 27.5612 103.922 27.186 103.922 26.757C103.922 26.5156 103.981 26.2675 104.099 26.0128L109.269 15.1105C109.438 14.7485 109.686 14.4739 110.013 14.2863C110.352 14.0851 110.724 13.9845 111.129 13.9845ZM139.303 14.1046C140.817 14.1046 142.13 14.3932 143.239 14.9698C144.349 15.533 145.198 16.3441 145.785 17.4034C146.373 18.4627 146.666 19.7232 146.666 21.1847C146.666 22.6597 146.373 23.9342 145.785 25.007C145.211 26.0663 144.375 26.8774 143.278 27.4406C142.169 28.0038 140.843 28.2853 139.303 28.2853H135.348C134.812 28.2853 134.4 28.1379 134.113 27.8429C133.826 27.5479 133.683 27.1249 133.683 26.5753V15.8146C133.683 15.2648 133.826 14.842 134.113 14.547C134.4 14.252 134.812 14.1046 135.348 14.1046H139.303ZM137.286 25.3087H139.049C140.393 25.3087 141.399 24.9733 142.064 24.3029C142.743 23.619 143.083 22.5792 143.083 21.1847C143.083 19.7903 142.743 18.7574 142.064 18.087C141.399 17.4167 140.393 17.0822 139.049 17.0822H137.286V25.3087ZM109.21 22.5734H113.126L111.168 18.088L109.21 22.5734ZM123.343 20.1993H125.85C126.646 20.1993 127.213 20.0721 127.553 19.8175C127.905 19.5628 128.082 19.1469 128.082 18.5704C128.082 17.9804 127.905 17.5576 127.553 17.3029C127.213 17.0348 126.646 16.9006 125.85 16.9005H123.343V20.1993Z" fill="white"/>
<path d="M0 9.65115C0 6.27293 0 4.58382 0.657445 3.29351C1.23575 2.15852 2.15852 1.23575 3.29351 0.657445C4.58382 0 6.27293 0 9.65114 0H76.0221C79.4003 0 81.0894 0 82.3798 0.657445C83.5147 1.23575 84.4375 2.15852 85.0158 3.29351C85.6733 4.58382 85.6733 6.27293 85.6733 9.65114V24.3525C85.6733 26.1086 85.6733 26.9866 85.4784 27.8149C85.3057 28.5493 85.0206 29.2526 84.6333 29.9001C84.1966 30.6303 83.5853 31.2606 82.3627 32.5212L74.6874 40.4354C73.4123 41.7501 72.7748 42.4074 72.0252 42.8779C71.3606 43.295 70.6334 43.6028 69.8714 43.7894C69.0117 44 68.096 44 66.2646 44H9.65115C6.27293 44 4.58382 44 3.29351 43.3426C2.15852 42.7643 1.23575 41.8415 0.657445 40.7065C0 39.4162 0 37.7271 0 34.3489V9.65115Z" fill="#E40163"/>
<path d="M14.0601 13.924C15.0131 13.924 15.8618 14.0317 16.606 14.2462C17.3498 14.4607 18.0287 14.7954 18.6421 15.2511C18.8771 15.4254 19.0409 15.6134 19.1323 15.8146C19.2367 16.0023 19.2886 16.2371 19.2886 16.5187C19.2886 16.9209 19.171 17.2696 18.936 17.5646C18.7141 17.8596 18.4466 18.0069 18.1333 18.007C17.9637 18.007 17.8071 17.9866 17.6636 17.9464C17.52 17.8928 17.3173 17.786 17.0562 17.6251L16.5083 17.3029C15.8033 16.9408 14.9934 16.7599 14.0796 16.7599C13.414 16.7599 12.8788 16.8942 12.4741 17.1622C12.0694 17.417 11.8667 17.7595 11.8667 18.1886C11.8668 18.4432 11.939 18.6508 12.0825 18.8116C12.2261 18.9725 12.4936 19.127 12.8853 19.2745C13.2508 19.4354 13.8322 19.5961 14.6284 19.757C15.8422 20.0385 16.8144 20.3741 17.5454 20.7628C18.2765 21.1517 18.7995 21.6141 19.1128 22.1505C19.413 22.7003 19.563 23.3173 19.563 24.0011C19.563 24.8861 19.3214 25.6708 18.8384 26.3546C18.3553 27.0251 17.6824 27.5414 16.8208 27.9034C15.9723 28.2788 14.9604 28.4669 13.7856 28.4669C12.7546 28.4669 11.7952 28.353 10.9077 28.1251C10.02 27.8838 9.2758 27.5545 8.67529 27.1388C8.45336 26.9645 8.2895 26.7836 8.18506 26.5958C8.09379 26.4082 8.04837 26.1669 8.04834 25.8722C8.04834 25.47 8.16596 25.1213 8.40088 24.8263C8.63585 24.5313 8.90986 24.3839 9.22314 24.3839C9.39274 24.3839 9.55584 24.4104 9.7124 24.464C9.88212 24.5176 10.0784 24.6182 10.3003 24.7657C10.8355 25.0741 11.3641 25.2957 11.8862 25.4298C12.4215 25.5639 13.0222 25.631 13.688 25.631C14.4582 25.631 15.0395 25.5162 15.4312 25.2882C15.8356 25.0468 16.0376 24.6981 16.0376 24.2423C16.0375 23.9206 15.8552 23.6521 15.4897 23.4376C15.1372 23.2231 14.4254 23.0086 13.355 22.7941C12.0888 22.5125 11.0899 22.178 10.3589 21.7892C9.62781 21.4003 9.1058 20.9369 8.79248 20.4005C8.49235 19.8509 8.34234 19.2142 8.34229 18.4904C8.34229 17.6456 8.59034 16.8742 9.08643 16.1769C9.5825 15.4662 10.2675 14.9092 11.1421 14.507C12.0429 14.1181 13.0157 13.924 14.0601 13.924ZM59.561 14.1046C61.2188 14.1046 62.4722 14.4738 63.3208 15.2111C64.1693 15.9485 64.5942 17.0281 64.5942 18.4493C64.5942 19.5355 64.3073 20.4481 63.7329 21.1857C63.1585 21.9232 62.3486 22.4192 61.3042 22.674C61.735 22.741 62.1071 22.8884 62.4204 23.1163C62.7468 23.3443 63.0671 23.6858 63.3804 24.1417L64.5942 25.9327C64.8291 26.2946 64.9468 26.6364 64.9468 26.9581C64.9468 27.3872 64.7764 27.7491 64.437 28.0441C64.0976 28.3256 63.6931 28.4669 63.2231 28.4669C62.9099 28.4669 62.6164 28.3927 62.3423 28.2452C62.0681 28.0977 61.833 27.8762 61.6372 27.5812L59.0913 23.7599C58.9086 23.4785 58.7131 23.2771 58.5044 23.1564C58.3087 23.0357 58.0733 22.9758 57.7993 22.9757H56.5259V26.5763C56.5258 27.1393 56.3694 27.5888 56.0562 27.924C55.7429 28.2456 55.3121 28.4063 54.7642 28.4064C54.216 28.4064 53.778 28.2457 53.4517 27.924C53.1384 27.5888 52.982 27.1393 52.9819 26.5763V15.8146C52.982 15.265 53.1255 14.8429 53.4126 14.548C53.6998 14.253 54.1108 14.1046 54.646 14.1046H59.561ZM33.8589 14.004C34.3548 14.004 34.7595 14.1719 35.0728 14.507C35.3861 14.8422 35.5434 15.2782 35.5435 15.8146V26.757C35.5434 27.2665 35.399 27.669 35.1118 27.964C34.8247 28.2588 34.4459 28.4064 33.9761 28.4064C33.5063 28.4063 33.1275 28.2589 32.8403 27.964C32.5532 27.669 32.4097 27.2664 32.4097 26.757V20.8429L30.1772 25.0675C29.9554 25.4965 29.7202 25.8046 29.4722 25.9923C29.2242 26.1666 28.9307 26.254 28.5913 26.254C28.2519 26.254 27.9585 26.1666 27.7104 25.9923C27.4625 25.8046 27.2273 25.4965 27.0054 25.0675L24.7925 20.964V26.757C24.7925 27.253 24.6425 27.6556 24.3423 27.964C24.0552 28.2589 23.6763 28.4063 23.2065 28.4064C22.7368 28.4064 22.358 28.2588 22.0708 27.964C21.7836 27.669 21.6392 27.2665 21.6392 26.757V15.8146C21.6392 15.2782 21.7966 14.8422 22.1099 14.507C22.4362 14.1719 22.8473 14.004 23.3433 14.004C23.6957 14.004 24.016 14.1118 24.3032 14.3263C24.5902 14.5274 24.8311 14.8225 25.0269 15.2111L28.6304 22.171L32.2144 15.2111C32.6321 14.4067 33.1802 14.0041 33.8589 14.004ZM75.9624 14.1046C76.5366 14.1046 76.9607 14.2257 77.2349 14.4669C77.5221 14.7083 77.6655 15.0843 77.6655 15.5939C77.6655 16.1032 77.522 16.4856 77.2349 16.7404C76.9607 16.9815 76.5365 17.1017 75.9624 17.1017H73.2007V26.5763C73.2006 27.1259 73.0312 27.5683 72.6919 27.9034C72.3656 28.2252 71.9285 28.3858 71.3804 28.3859C70.8321 28.3859 70.3878 28.2253 70.0483 27.9034C69.722 27.5683 69.5592 27.1259 69.5591 26.5763V17.1017H66.7974C66.2233 17.1016 65.7925 16.9815 65.5054 16.7404C65.2313 16.4856 65.0943 16.1032 65.0942 15.5939C65.0942 15.0843 65.2312 14.7083 65.5054 14.4669C65.7925 14.2257 66.2232 14.1047 66.7974 14.1046H75.9624ZM44.2729 13.9845C44.6776 13.9845 45.0498 14.0851 45.3892 14.2863C45.7284 14.4873 45.9767 14.762 46.1333 15.1105L51.3032 26.0128C51.4207 26.2675 51.479 26.5156 51.479 26.757C51.479 27.1861 51.3032 27.5621 50.9507 27.8839C50.6114 28.1922 50.2195 28.3457 49.7759 28.3458C49.1363 28.3458 48.666 28.0244 48.3657 27.381L47.4849 25.3488H41.1401L40.2388 27.381C39.9515 28.0244 39.4748 28.3458 38.8091 28.3458C38.3524 28.3458 37.9476 28.1921 37.5952 27.8839C37.2427 27.5621 37.0669 27.1861 37.0669 26.757C37.0669 26.5156 37.1252 26.2676 37.2427 26.0128L42.4126 15.1105C42.5823 14.7486 42.8305 14.4739 43.1567 14.2863C43.4962 14.0851 43.8683 13.9845 44.2729 13.9845ZM42.354 22.5734H46.27L44.312 18.088L42.354 22.5734ZM56.4868 20.1993H58.9937C59.7897 20.1993 60.3573 20.0722 60.6968 19.8175C61.0493 19.5627 61.2261 19.147 61.2261 18.5704C61.2261 17.9804 61.0493 17.5576 60.6968 17.3029C60.3573 17.0349 59.7896 16.9005 58.9937 16.9005H56.4868V20.1993Z" fill="white"/>
</svg>
