<svg width="107" height="32" viewBox="0 0 107 32" fill="none" xmlns="http://www.w3.org/2000/svg">
<path d="M71.5361 10.125C72.7609 10.125 73.8204 10.4521 74.7129 11.1055C74.8741 11.2224 74.9883 11.3489 75.0547 11.4854C75.1306 11.6218 75.1679 11.7974 75.168 12.0117C75.168 12.3139 75.0828 12.5726 74.9121 12.7871C74.7507 12.9919 74.5508 13.0947 74.3135 13.0947C74.1902 13.0947 74.0718 13.075 73.958 13.0361C73.8536 12.9971 73.7107 12.9237 73.5303 12.8164C73.1982 12.6118 72.885 12.4657 72.5908 12.3779C72.2965 12.2902 71.992 12.2461 71.6787 12.2461C70.8339 12.2461 70.2029 12.5097 69.7852 13.0361C69.3769 13.553 69.1729 14.3432 69.1729 15.4062C69.1729 16.4788 69.3769 17.2781 69.7852 17.8047C70.2029 18.3215 70.8338 18.58 71.6787 18.5801C71.935 18.5801 72.1868 18.5409 72.4336 18.4629C72.6899 18.3849 73.0556 18.234 73.5303 18.0098C73.7674 17.8831 73.924 17.8047 74 17.7754C74.0854 17.7462 74.1901 17.7315 74.3135 17.7314C74.5508 17.7314 74.7507 17.8392 74.9121 18.0537C75.0829 18.2585 75.168 18.5122 75.168 18.8145C75.168 19.0191 75.1305 19.1946 75.0547 19.3408C74.9882 19.4773 74.8742 19.6047 74.7129 19.7217C73.8204 20.3751 72.7609 20.7012 71.5361 20.7012C70.5394 20.7011 69.6608 20.4867 68.9014 20.0576C68.1516 19.6286 67.5681 19.0142 67.1504 18.2148C66.7327 17.4055 66.5235 16.4691 66.5234 15.4062C66.5234 14.3532 66.7276 13.4266 67.1357 12.627C67.5534 11.8176 68.1419 11.1977 68.9014 10.7686C69.6608 10.3395 70.5394 10.1251 71.5361 10.125ZM91.9395 10.2568C93.1452 10.2568 94.0567 10.5252 94.6738 11.0615C95.2909 11.5978 95.5995 12.3824 95.5996 13.416C95.5996 14.206 95.3914 14.8699 94.9736 15.4062C94.5559 15.9426 93.9666 16.303 93.207 16.4883C93.5204 16.537 93.7917 16.6448 94.0195 16.8105C94.2567 16.9763 94.4891 17.2253 94.7168 17.5566L95.5996 18.8584C95.7705 19.1217 95.8564 19.3704 95.8564 19.6045C95.8564 19.9164 95.7331 20.18 95.4863 20.3945C95.2395 20.5993 94.9443 20.7012 94.6025 20.7012C94.3748 20.7011 94.1612 20.6472 93.9619 20.54C93.7627 20.4328 93.5916 20.2721 93.4492 20.0576L91.5977 17.2783C91.4649 17.0737 91.3227 16.9276 91.1709 16.8398C91.0285 16.7521 90.8575 16.708 90.6582 16.708H89.7324V19.3262C89.7324 19.7358 89.6185 20.0628 89.3906 20.3066C89.1628 20.5407 88.8489 20.6572 88.4502 20.6572C88.0516 20.6572 87.7334 20.5406 87.4961 20.3066C87.2682 20.0628 87.1543 19.7358 87.1543 19.3262V11.5C87.1543 11.1002 87.2589 10.7927 87.4678 10.5781C87.6766 10.3637 87.976 10.2568 88.3652 10.2568H91.9395ZM80.8213 10.1689C81.1154 10.169 81.3861 10.2425 81.6328 10.3887C81.8795 10.5349 82.0599 10.7348 82.1738 10.9883L85.9336 18.917C86.019 19.1022 86.0615 19.2825 86.0615 19.458C86.0615 19.77 85.934 20.0433 85.6777 20.2773C85.431 20.5015 85.1459 20.6132 84.8232 20.6133C84.358 20.6133 84.0162 20.3792 83.7979 19.9111L83.1562 18.4336H78.542L77.8867 19.9111C77.6779 20.3792 77.3317 20.6132 76.8477 20.6133C76.5155 20.6133 76.2211 20.5015 75.9648 20.2773C75.7085 20.0433 75.5801 19.7701 75.5801 19.458C75.5801 19.2825 75.6226 19.1022 75.708 18.917L79.4678 10.9883C79.5911 10.7251 79.7716 10.5252 80.0088 10.3887C80.2556 10.2424 80.527 10.1689 80.8213 10.1689ZM101.312 10.2568C102.413 10.2569 103.367 10.4664 104.174 10.8857C104.981 11.2953 105.598 11.885 106.025 12.6553C106.453 13.4257 106.666 14.3432 106.666 15.4062C106.666 16.4788 106.453 17.4055 106.025 18.1855C105.608 18.9559 105 19.5455 104.202 19.9551C103.395 20.3646 102.432 20.5693 101.312 20.5693H98.4346C98.0453 20.5693 97.746 20.4626 97.5371 20.248C97.3282 20.0335 97.2236 19.726 97.2236 19.3262V11.5C97.2236 11.1002 97.3282 10.7927 97.5371 10.5781C97.746 10.3636 98.0453 10.2568 98.4346 10.2568H101.312ZM99.8447 18.4043H101.126C102.104 18.4043 102.835 18.1605 103.319 17.6729C103.813 17.1755 104.06 16.4202 104.06 15.4062C104.06 14.3921 103.813 13.6409 103.319 13.1533C102.835 12.6657 102.104 12.4219 101.126 12.4219H99.8447V18.4043ZM79.4248 16.415H82.2734L80.8496 13.1533L79.4248 16.415ZM89.7041 14.6895H91.5264C92.1054 14.6895 92.5188 14.5964 92.7656 14.4111C93.022 14.2258 93.1504 13.9233 93.1504 13.5039C93.1503 13.075 93.0218 12.7683 92.7656 12.583C92.5188 12.388 92.1055 12.29 91.5264 12.29H89.7041V14.6895Z" fill="#3C3C43"/>
<path d="M0 7.01901C0 4.56213 0 3.33369 0.478142 2.39528C0.898727 1.56983 1.56983 0.898727 2.39528 0.478142C3.33369 0 4.56213 0 7.01901 0H55.2888C57.7457 0 58.9741 0 59.9126 0.478142C60.738 0.898727 61.4091 1.56983 61.8297 2.39528C62.3078 3.33369 62.3078 4.56213 62.3078 7.01901V17.7109C62.3078 18.9881 62.3078 19.6266 62.1661 20.229C62.0405 20.7631 61.8332 21.2746 61.5515 21.7455C61.2339 22.2766 60.7893 22.735 59.9002 23.6518L54.3181 29.4075C53.3908 30.3637 52.9271 30.8418 52.3819 31.1839C51.8986 31.4873 51.3698 31.7111 50.8155 31.8469C50.1904 32 49.5244 32 48.1924 32H7.01901C4.56213 32 3.33369 32 2.39528 31.5219C1.56983 31.1013 0.898727 30.4302 0.478142 29.6047C0 28.6663 0 27.4379 0 24.981V7.01901Z" fill="#E40163"/>
<path d="M10.2236 10.125C10.9167 10.125 11.534 10.2033 12.0752 10.3594C12.6164 10.5154 13.1104 10.7593 13.5566 11.0908C13.7273 11.2175 13.8457 11.3539 13.9121 11.5C13.988 11.6364 14.0263 11.8071 14.0264 12.0117C14.0264 12.3043 13.9404 12.5579 13.7695 12.7725C13.6082 12.9869 13.4142 13.0946 13.1865 13.0947C13.0631 13.0947 12.9482 13.08 12.8438 13.0508C12.7393 13.0117 12.592 12.9333 12.4023 12.8164L12.0039 12.583C11.4913 12.3197 10.9028 12.1875 10.2383 12.1875C9.75406 12.1875 9.36464 12.2854 9.07031 12.4805C8.77598 12.6658 8.62891 12.9145 8.62891 13.2266C8.62895 13.4117 8.68085 13.5627 8.78516 13.6797C8.8896 13.7967 9.0843 13.9093 9.36914 14.0166C9.63498 14.1336 10.0576 14.2502 10.6367 14.3672C11.5197 14.572 12.2271 14.8158 12.7588 15.0986C13.2905 15.3815 13.6706 15.7183 13.8984 16.1084C14.1167 16.5082 14.2256 16.9569 14.2256 17.4541C14.2256 18.0975 14.0502 18.6678 13.6992 19.165C13.3479 19.6527 12.8581 20.0287 12.2314 20.292C11.6144 20.5649 10.8787 20.7012 10.0244 20.7012C9.27435 20.7012 8.57629 20.6189 7.93066 20.4531C7.28526 20.2776 6.74428 20.0385 6.30762 19.7363C6.14621 19.6095 6.02713 19.4774 5.95117 19.3408C5.88478 19.2043 5.85157 19.0289 5.85156 18.8145C5.85156 18.522 5.93663 18.2682 6.10742 18.0537C6.27832 17.8392 6.47819 17.7314 6.70605 17.7314C6.82947 17.7314 6.94857 17.751 7.0625 17.79C7.18584 17.8291 7.32801 17.9026 7.48926 18.0098C7.87839 18.234 8.26293 18.3947 8.64258 18.4922C9.03185 18.5897 9.46892 18.6387 9.95312 18.6387C10.5132 18.6387 10.9359 18.5564 11.2207 18.3906C11.5149 18.2151 11.662 17.9613 11.6621 17.6299C11.6621 17.3958 11.5295 17.2 11.2637 17.0439C11.0073 16.8879 10.4895 16.7322 9.71094 16.5762C8.79008 16.3714 8.06389 16.1275 7.53223 15.8447C7.00067 15.562 6.62047 15.2259 6.39258 14.8359C6.1742 14.4361 6.06543 13.9719 6.06543 13.4453C6.06551 12.8311 6.24578 12.2707 6.60645 11.7637C6.96724 11.2468 7.46543 10.8414 8.10156 10.5488C8.75664 10.266 9.46413 10.125 10.2236 10.125ZM43.3154 10.2568C44.5212 10.2568 45.4327 10.5251 46.0498 11.0615C46.6669 11.5978 46.9755 12.3825 46.9756 13.416C46.9756 14.206 46.7664 14.8699 46.3486 15.4062C45.9309 15.9424 45.3424 16.303 44.583 16.4883C44.8963 16.537 45.1667 16.6448 45.3945 16.8105C45.6319 16.9763 45.8649 17.2251 46.0928 17.5566L46.9756 18.8584C47.1465 19.1217 47.2324 19.3704 47.2324 19.6045C47.2324 19.9165 47.1082 20.18 46.8613 20.3945C46.6145 20.5991 46.3201 20.7012 45.9785 20.7012C45.7508 20.7011 45.5372 20.6482 45.3379 20.541C45.1385 20.4337 44.9676 20.2722 44.8252 20.0576L42.9736 17.2783C42.8408 17.0738 42.6986 16.9276 42.5469 16.8398C42.4045 16.7521 42.2334 16.7081 42.0342 16.708H41.1084V19.3262C41.1084 19.7357 40.9944 20.0628 40.7666 20.3066C40.5387 20.5407 40.2249 20.6572 39.8262 20.6572C39.4275 20.6572 39.1094 20.5407 38.8721 20.3066C38.6442 20.0628 38.5303 19.7358 38.5303 19.3262V11.5C38.5303 11.1002 38.6349 10.7927 38.8438 10.5781C39.0526 10.3637 39.3521 10.2568 39.7412 10.2568H43.3154ZM24.623 10.1836C24.9837 10.1836 25.278 10.3052 25.5059 10.5488C25.7337 10.7926 25.8476 11.1099 25.8477 11.5V19.458C25.8477 19.8286 25.7431 20.1214 25.5342 20.3359C25.3253 20.5503 25.0497 20.6572 24.708 20.6572C24.3666 20.6571 24.0916 20.5502 23.8828 20.3359C23.6739 20.1214 23.5693 19.8286 23.5693 19.458V15.1572L21.9453 18.2295C21.7839 18.5414 21.613 18.7659 21.4326 18.9023C21.2523 19.029 21.0387 19.0928 20.792 19.0928C20.5453 19.0928 20.3317 19.029 20.1514 18.9023C19.971 18.7659 19.8 18.5414 19.6387 18.2295L18.0293 15.2451V19.458C18.0293 19.8188 17.9195 20.1116 17.7012 20.3359C17.4923 20.5503 17.2167 20.6572 16.875 20.6572C16.5336 20.6571 16.2586 20.5502 16.0498 20.3359C15.8409 20.1214 15.7363 19.8286 15.7363 19.458V11.5C15.7363 11.1099 15.8503 10.7926 16.0781 10.5488C16.3154 10.3052 16.615 10.1836 16.9756 10.1836C17.2317 10.1837 17.4641 10.262 17.6729 10.418C17.8817 10.5643 18.0578 10.7788 18.2002 11.0615L20.8203 16.123L23.4268 11.0615C23.7306 10.4764 24.1293 10.1836 24.623 10.1836ZM55.2432 10.2568C55.6607 10.2568 55.9695 10.3442 56.1689 10.5195C56.3778 10.695 56.4824 10.9685 56.4824 11.3389C56.4824 11.7095 56.3778 11.9876 56.1689 12.1729C55.9696 12.3484 55.6609 12.4365 55.2432 12.4365H53.2354V19.3262C53.2354 19.726 53.1121 20.0482 52.8652 20.292C52.6279 20.526 52.3098 20.6425 51.9111 20.6426C51.5124 20.6426 51.1892 20.526 50.9424 20.292C50.705 20.0482 50.5859 19.726 50.5859 19.3262V12.4365H48.5781C48.1605 12.4365 47.8475 12.3483 47.6387 12.1729C47.4393 11.9876 47.3389 11.7095 47.3389 11.3389C47.3389 10.9685 47.4393 10.695 47.6387 10.5195C47.8475 10.3442 48.1607 10.2569 48.5781 10.2568H55.2432ZM32.1963 10.1689C32.4906 10.1689 32.7619 10.2424 33.0088 10.3887C33.2555 10.5349 33.4359 10.7348 33.5498 10.9883L37.3096 18.917C37.395 19.1022 37.4375 19.2825 37.4375 19.458C37.4375 19.7701 37.3091 20.0433 37.0527 20.2773C36.8059 20.5015 36.521 20.6143 36.1982 20.6143C35.7333 20.6141 35.3912 20.3799 35.1729 19.9121L34.5322 18.4346H29.918L29.2627 19.9121C29.0539 20.3798 28.7075 20.6141 28.2236 20.6143C27.8913 20.6143 27.5962 20.5016 27.3398 20.2773C27.0836 20.0433 26.9561 19.77 26.9561 19.458C26.9561 19.2825 26.9986 19.1022 27.084 18.917L30.8438 10.9883C30.9671 10.725 31.1475 10.5252 31.3848 10.3887C31.6315 10.2424 31.9021 10.169 32.1963 10.1689ZM30.8008 16.415H33.6494L32.2256 13.1533L30.8008 16.415ZM41.0801 14.6895H42.9023C43.4815 14.6895 43.8947 14.5964 44.1416 14.4111C44.3979 14.2258 44.5264 13.9232 44.5264 13.5039C44.5263 13.0751 44.3978 12.7683 44.1416 12.583C43.8947 12.388 43.4815 12.29 42.9023 12.29H41.0801V14.6895Z" fill="white"/>
</svg>
