<svg width="626" height="626" viewBox="0 0 626 626" fill="none" xmlns="http://www.w3.org/2000/svg">
<g opacity="0.2" clip-path="url(#clip0_19_657)">
<path d="M391.266 469.5C391.266 512.716 356.233 547.75 313.016 547.75C269.8 547.75 234.766 512.716 234.766 469.5C234.766 426.284 269.8 391.25 313.016 391.25C356.233 391.25 391.266 426.284 391.266 469.5Z" fill="white"/>
<path d="M313.016 234.75C397.893 234.75 472.249 279.795 513.482 347.284L455.685 405.081C431.129 350.782 376.485 313 313.016 313C249.548 313 194.904 350.782 170.347 405.081L112.55 347.284C153.783 279.795 228.139 234.75 313.016 234.75Z" fill="white"/>
<path d="M626.033 234.734L570 290.766C513.448 209.608 419.434 156.5 313.016 156.5C206.598 156.5 112.585 209.608 56.0328 290.766L0 234.734C71.3809 139.712 185.021 78.25 313.016 78.25C441.012 78.25 554.652 139.712 626.033 234.734Z" fill="white"/>
</g>
<defs>
<clipPath id="clip0_19_657">
<rect width="626" height="626" fill="white"/>
</clipPath>
</defs>
</svg>
